<?xml version="1.0" encoding="utf-8"?>
<!-- Generator: Adobe Illustrator 16.0.0, SVG Export Plug-In . SVG Version: 6.00 Build 0)  -->
<!DOCTYPE svg PUBLIC "-//W3C//DTD SVG 1.1//EN" "http://www.w3.org/Graphics/SVG/1.1/DTD/svg11.dtd">
<svg version="1.1" id="Layer_1" xmlns="http://www.w3.org/2000/svg" xmlns:xlink="http://www.w3.org/1999/xlink" x="0px" y="0px"
	 width="167px" height="50px" viewBox="0 0 167 50" enable-background="new 0 0 167 50" xml:space="preserve">
<g>
	<g>
		<path fill-rule="evenodd" clip-rule="evenodd" d="M29.432,34.196l-0.997,0.06c-0.149,0.004-0.304,0.017-0.444-0.017
			c-0.008-0.001-0.013,0.028-0.018,0.028l-0.021-0.007c-0.003,0-0.004-0.001-0.008-0.002c-2.132-0.501-3.499-0.971-5.648-1.573
			c-0.879-0.244-1.745-0.491-2.609-0.747c-4.254-1.268-8.313-2.739-11.762-5.002c-6.296-4.135-6.21-8.304-3.493-11.8l11.743,3.104
			l0.005,0.004c-4.175,6.165,6.868,14.173,11.859,16.019L29.432,34.196L29.432,34.196z M5.584,13.842l11.41,3.372
			c2.479-2.692,7.088-4.811,11.736-6.376l-9.046-4.429c-1.845,0.542-3.636,1.166-5.339,1.89c-0.901,0.382-1.817,0.812-2.722,1.286
			C9.388,10.761,7.223,12.209,5.584,13.842L5.584,13.842z M20.562,6.158C27.2,4.312,34.468,3.489,41.028,3.012
			c0.462-0.035,0.927-0.066,1.395-0.094l4.738,3.967c-2.115,0.207-4.189,0.48-6.188,0.84c-2.436,0.437-6.828,1.366-11.313,2.808
			L20.562,6.158L20.562,6.158z M43.734,2.84l4.42,3.953c4.445-0.389,9.052-0.502,13.511-0.514c1.051-0.004,2.103,0,3.151,0.007
			l-2.563-3.323c-1.594-0.114-3.188-0.202-4.781-0.253C52.958,2.561,48.339,2.593,43.734,2.84L43.734,2.84z M63.338,3.044
			c4.994,0.393,9.978,1.012,14.958,1.514l0.186,0.025l1.623,2.231c-4.793-0.3-9.602-0.471-14.426-0.521L63.338,3.044L63.338,3.044z
			 M79.543,4.728l1.454,2.144c10.315,0.681,20.569,1.967,30.792,3.968c-7.805-1.909-15.338-3.834-23.301-4.908L79.543,4.728z"/>
	</g>
	<g>
		<polygon fill-rule="evenodd" clip-rule="evenodd" fill="#FFFFFF" points="82.058,5.98 82.056,6.102 82.912,6.147 82.931,6 		"/>
	</g>
	<g>
		<polygon fill-rule="evenodd" clip-rule="evenodd" fill="#FFFFFF" points="84.902,6.292 84.9,6.415 85.752,6.468 85.773,6.323 		
			"/>
	</g>
	<g>
		<polygon fill-rule="evenodd" clip-rule="evenodd" fill="#FFFFFF" points="87.25,6.645 87.246,6.767 88.096,6.821 88.121,6.675 		
			"/>
	</g>
	<g>
		<polygon fill-rule="evenodd" clip-rule="evenodd" fill="#FFFFFF" points="12.494,14.199 14.732,12.472 15.292,13.155 
			13.172,14.862 		"/>
	</g>
	<g>
		<polygon fill-rule="evenodd" clip-rule="evenodd" fill="#FFFFFF" points="19.287,10.139 19.713,10.926 22.312,9.853 21.96,9.025 
					"/>
	</g>
	<g>
		<polygon fill-rule="evenodd" clip-rule="evenodd" fill="#FFFFFF" points="28.087,7.142 28.468,7.882 31.031,7.129 30.769,6.44 		
			"/>
	</g>
	<g>
		<polygon fill-rule="evenodd" clip-rule="evenodd" fill="#FFFFFF" points="10.542,18.176 11.474,18.538 10.955,20.051 
			9.964,19.803 		"/>
	</g>
	<g>
		<polygon fill-rule="evenodd" clip-rule="evenodd" fill="#FFFFFF" points="10.149,22.211 10.915,22.053 11.276,23.175 
			10.668,23.382 		"/>
	</g>
	<g>
		<polygon fill-rule="evenodd" clip-rule="evenodd" fill="#FFFFFF" points="37.451,5.153 37.63,5.774 40.2,5.329 39.994,4.714 		"/>
	</g>
	<g>
		<polygon fill-rule="evenodd" clip-rule="evenodd" fill="#FFFFFF" points="46.841,4.314 46.999,4.825 49.695,4.636 49.579,4.094 		
			"/>
	</g>
	<g>
		<polygon fill-rule="evenodd" clip-rule="evenodd" fill="#FFFFFF" points="55.766,3.806 55.835,4.313 58.264,4.278 58.242,3.815 		
			"/>
	</g>
	<g>
		<polygon fill-rule="evenodd" clip-rule="evenodd" fill="#FFFFFF" points="66.137,4.514 66.137,4.875 67.863,4.946 67.896,4.514 		
			"/>
	</g>
	<g>
		<polygon fill-rule="evenodd" clip-rule="evenodd" fill="#FFFFFF" points="70.255,4.684 70.255,4.992 72.421,5.055 72.466,4.684 		
			"/>
	</g>
	<g>
		<polygon fill-rule="evenodd" clip-rule="evenodd" fill="#FFFFFF" points="75.036,5.098 75.036,5.341 76.745,5.39 76.783,5.098 		
			"/>
	</g>
	<g>
		<polygon fill-rule="evenodd" clip-rule="evenodd" fill="#FFFFFF" points="11.609,25.14 12.263,24.885 12.864,25.988 
			12.341,26.281 		"/>
	</g>
	<g>
		<polygon fill-rule="evenodd" clip-rule="evenodd" fill="#FFFFFF" points="14.192,27.64 14.404,27.523 14.802,27.979 14.629,28.13 
					"/>
	</g>
	<g>
		<polygon fill-rule="evenodd" clip-rule="evenodd" fill="#FFFFFF" points="16.186,29.179 16.35,29.048 16.652,29.295 
			16.493,29.447 		"/>
	</g>
</g>
<g>
	<g>
		<path fill="#1A37FF" d="M42.593,11.722l4.278,22.547h-7.656l-0.377-4.056h-1.475v-4.001h1.274
			c-0.375-2.554-0.75-5.682-1.151-9.459c-0.048,0.275-0.072,0.551-0.123,0.799v-5.831H42.593z M37.364,30.214h-1.202L35.71,34.27
			h-7.73l3.805-22.547h5.579v5.831c-0.676,3.929-1.102,6.783-1.276,8.66h1.276V30.214z"/>
	</g>
	<g>
		<path fill="#1A37FF" d="M65.615,11.898v15.014c0,1.7-0.076,2.903-0.225,3.603c-0.127,0.676-0.552,1.402-1.252,2.128
			c-0.7,0.725-1.628,1.275-2.753,1.648c-1.152,0.378-2.505,0.579-4.03,0.579c-1.727,0-3.252-0.226-4.552-0.676
			c-1.302-0.45-2.302-1.029-2.954-1.751c-0.651-0.701-1.025-1.453-1.149-2.253c-0.127-0.803-0.177-2.453-0.177-5.007V11.898h7.482
			v16.838c0,1.003,0.051,1.629,0.2,1.902c0.124,0.274,0.4,0.401,0.824,0.401c0.477,0,0.777-0.15,0.9-0.449
			c0.15-0.301,0.204-1.002,0.204-2.127V11.898H65.615z"/>
	</g>
	<g>
		<polygon fill="#1A37FF" points="84.105,11.624 84.105,16.177 79.702,16.177 79.702,34.291 72.244,34.291 72.244,16.177 
			67.816,16.177 67.816,11.624 		"/>
	</g>
	<g>
		<path fill="#1A37FF" d="M103.773,25.211c0,2.349-0.074,4.001-0.203,4.979c-0.148,0.975-0.572,1.878-1.273,2.675
			c-0.727,0.803-1.703,1.426-2.904,1.852c-1.225,0.453-2.65,0.65-4.254,0.65h-0.023v-3.951c0.502,0,0.826-0.175,0.975-0.526
			c0.125-0.375,0.199-1.251,0.199-2.627V17.578c0-1.102-0.074-1.801-0.223-2.102c-0.125-0.3-0.449-0.45-0.9-0.45h-0.051v-3.955
			h0.023c1.527,0,2.904,0.227,4.129,0.627c1.227,0.4,2.205,1.027,2.953,1.826c0.752,0.827,1.201,1.701,1.326,2.677
			c0.152,0.951,0.227,2.628,0.227,5.054V25.211z M95.115,35.367c-1.527,0-2.904-0.197-4.129-0.599
			c-1.225-0.425-2.199-1.024-2.953-1.851c-0.752-0.801-1.174-1.703-1.326-2.654c-0.15-0.974-0.223-2.651-0.223-5.052v-3.955
			c0-2.352,0.072-4.028,0.223-5.002c0.125-0.978,0.551-1.854,1.277-2.654c0.699-0.826,1.674-1.427,2.9-1.878
			c1.203-0.424,2.627-0.65,4.23-0.65v3.955c-0.352,0.025-0.65,0.125-0.852,0.374c-0.197,0.251-0.297,0.951-0.297,2.178v10.859
			c0,1.352,0.07,2.201,0.197,2.503c0.125,0.325,0.451,0.476,0.951,0.476l0,0V35.367z"/>
	</g>
	<g>
		<path fill="#DC0000" d="M115.66,10.622c1.748,0.051,3.125,0.199,4.1,0.45c1.205,0.301,2.203,0.902,2.932,1.827
			c0.748,0.927,1.123,2.401,1.123,4.453c0,1.402-0.25,2.353-0.775,2.904c-0.549,0.55-1.578,0.978-3.127,1.276
			c1.725,0.277,2.902,0.824,3.504,1.578c0.625,0.749,0.924,1.875,0.924,3.426v2.2c0,1.604-0.201,2.778-0.648,3.555
			c-0.451,0.777-1.15,1.301-2.129,1.576c-0.977,0.277-2.926,0.424-5.902,0.424v-4.178c0.373-0.049,0.625-0.147,0.775-0.298
			c0.299-0.227,0.451-0.827,0.451-1.777v-2.226c0-1.002-0.127-1.628-0.402-1.828c-0.15-0.125-0.426-0.224-0.824-0.276v-3.803
			c0.447-0.05,0.775-0.2,0.922-0.424c0.203-0.302,0.305-1.153,0.305-2.554c0-0.75-0.076-1.276-0.254-1.55
			c-0.174-0.3-0.375-0.502-0.65-0.578c-0.074-0.024-0.199-0.048-0.322-0.073V10.622z M106.977,10.622h7.432c0.449,0,0.848,0,1.252,0
			v4.105c-0.305-0.026-0.701-0.05-1.23-0.05v5.253c0.328,0,0.574,0,0.754,0c0.172,0,0.324-0.025,0.477-0.025v3.803
			c-0.328-0.049-0.727-0.101-1.23-0.101v6.63c0.504-0.024,0.902-0.048,1.23-0.125v4.178h-0.055h-8.629V10.622z"/>
	</g>
	<g>
		<path fill="#DC0000" d="M144.709,10.622v15.815c0,1.801-0.076,3.052-0.199,3.776c-0.15,0.727-0.576,1.477-1.277,2.254
			c-0.701,0.75-1.602,1.325-2.754,1.727c-1.125,0.397-2.475,0.599-4.025,0.599c-1.729,0-3.229-0.222-4.555-0.699
			c-1.303-0.477-2.279-1.076-2.928-1.828c-0.65-0.751-1.053-1.55-1.152-2.376c-0.123-0.851-0.174-2.603-0.174-5.279V10.622h7.453
			v17.741c0,1.024,0.076,1.701,0.203,1.978c0.148,0.298,0.4,0.449,0.824,0.449c0.479,0,0.779-0.175,0.928-0.476
			c0.125-0.324,0.199-1.075,0.199-2.252v-17.44H144.709z"/>
	</g>
	<g>
		<path fill="#DC0000" d="M164.324,10.622l-5.428,15.088v8.581h-6.932V25.71l-5.254-15.088h6.881
			c1.074,4.604,1.674,7.706,1.801,9.308c0.424-2.527,1.102-5.629,2.076-9.308H164.324z"/>
	</g>
</g>
<g>
	<path d="M31.425,42.236h-2.496l-0.438,1.018c-0.108,0.25-0.162,0.437-0.162,0.561c0,0.099,0.046,0.185,0.14,0.259
		c0.093,0.075,0.295,0.123,0.606,0.146v0.176h-2.03v-0.176c0.269-0.048,0.443-0.109,0.523-0.186
		c0.162-0.152,0.341-0.461,0.537-0.927l2.268-5.306h0.167l2.244,5.362c0.181,0.432,0.345,0.711,0.492,0.839
		c0.147,0.129,0.353,0.201,0.616,0.217v0.176h-2.543v-0.176c0.256-0.013,0.43-0.056,0.521-0.129c0.09-0.072,0.135-0.161,0.135-0.266
		c0-0.14-0.063-0.36-0.19-0.661L31.425,42.236z M31.292,41.885l-1.094-2.605l-1.122,2.605H31.292z"/>
	<path d="M41.761,37.801l0.147,2.191h-0.147c-0.196-0.656-0.477-1.128-0.841-1.417c-0.365-0.288-0.802-0.433-1.312-0.433
		c-0.428,0-0.815,0.108-1.16,0.326c-0.346,0.217-0.617,0.563-0.815,1.038s-0.297,1.067-0.297,1.773c0,0.583,0.094,1.089,0.281,1.517
		s0.468,0.756,0.844,0.984s0.804,0.343,1.286,0.343c0.418,0,0.788-0.09,1.108-0.27c0.32-0.179,0.672-0.534,1.055-1.067l0.147,0.096
		c-0.323,0.573-0.701,0.993-1.131,1.26c-0.431,0.267-0.943,0.399-1.536,0.399c-1.068,0-1.896-0.396-2.482-1.188
		c-0.438-0.59-0.656-1.284-0.656-2.083c0-0.643,0.144-1.234,0.433-1.772c0.288-0.539,0.685-0.957,1.191-1.253
		c0.505-0.297,1.058-0.444,1.657-0.444c0.466,0,0.925,0.113,1.378,0.342c0.133,0.07,0.229,0.104,0.286,0.104
		c0.085,0,0.16-0.03,0.223-0.09c0.083-0.086,0.141-0.205,0.176-0.356H41.761z"/>
	<path d="M46.848,42.236h-2.496l-0.438,1.018c-0.108,0.25-0.162,0.437-0.162,0.561c0,0.099,0.046,0.185,0.14,0.259
		c0.093,0.075,0.295,0.123,0.606,0.146v0.176h-2.03v-0.176c0.269-0.048,0.443-0.109,0.523-0.186
		c0.162-0.152,0.341-0.461,0.537-0.927l2.268-5.306h0.167l2.244,5.362c0.181,0.432,0.345,0.711,0.492,0.839
		c0.147,0.129,0.353,0.201,0.616,0.217v0.176h-2.543v-0.176c0.256-0.013,0.43-0.056,0.521-0.129c0.09-0.072,0.135-0.161,0.135-0.266
		c0-0.14-0.063-0.36-0.19-0.661L46.848,42.236z M46.715,41.885l-1.094-2.605l-1.122,2.605H46.715z"/>
	<path d="M56.004,44.395h-1.721l-2.182-3.015c-0.162,0.007-0.293,0.01-0.395,0.01c-0.042,0-0.086-0.001-0.133-0.002
		c-0.047-0.002-0.097-0.004-0.147-0.008v1.874c0,0.405,0.044,0.657,0.133,0.756c0.12,0.14,0.301,0.209,0.542,0.209h0.252v0.176
		h-2.762v-0.176h0.242c0.273,0,0.468-0.089,0.585-0.267c0.066-0.098,0.1-0.331,0.1-0.698v-4.165c0-0.405-0.044-0.658-0.133-0.756
		c-0.124-0.14-0.308-0.209-0.552-0.209h-0.242v-0.176h2.349c0.685,0,1.189,0.05,1.514,0.149c0.325,0.1,0.601,0.283,0.827,0.552
		c0.227,0.268,0.34,0.587,0.34,0.958c0,0.396-0.129,0.739-0.387,1.031s-0.659,0.498-1.201,0.618l1.331,1.85
		c0.305,0.425,0.566,0.706,0.785,0.846s0.504,0.229,0.856,0.267V44.395z M51.426,41.081c0.06,0,0.112,0.001,0.157,0.002
		c0.044,0.002,0.081,0.003,0.109,0.003c0.615,0,1.079-0.134,1.391-0.399c0.313-0.267,0.468-0.605,0.468-1.018
		c0-0.402-0.126-0.729-0.378-0.981s-0.585-0.378-1-0.378c-0.184,0-0.433,0.029-0.747,0.09V41.081z"/>
	<path d="M62.851,41.104c0.447,0.095,0.781,0.247,1.003,0.456c0.308,0.292,0.461,0.648,0.461,1.07c0,0.32-0.102,0.627-0.304,0.92
		c-0.203,0.293-0.481,0.507-0.834,0.642s-0.893,0.202-1.619,0.202h-3.043v-0.176h0.243c0.269,0,0.462-0.086,0.58-0.257
		c0.073-0.111,0.109-0.347,0.109-0.708v-4.165c0-0.399-0.046-0.651-0.138-0.756c-0.124-0.14-0.308-0.209-0.551-0.209h-0.243v-0.176
		h2.786c0.52,0,0.937,0.037,1.25,0.113c0.475,0.114,0.838,0.316,1.088,0.606s0.375,0.624,0.375,1.001
		c0,0.323-0.098,0.612-0.294,0.867C63.524,40.792,63.234,40.981,62.851,41.104z M60.359,40.848c0.117,0.022,0.251,0.039,0.402,0.05
		c0.15,0.012,0.316,0.017,0.497,0.017c0.463,0,0.811-0.05,1.043-0.149s0.412-0.253,0.535-0.459s0.185-0.431,0.185-0.675
		c0-0.377-0.153-0.699-0.461-0.965c-0.308-0.267-0.756-0.399-1.345-0.399c-0.317,0-0.603,0.034-0.856,0.104V40.848z M60.359,43.929
		c0.368,0.086,0.73,0.128,1.089,0.128c0.573,0,1.011-0.129,1.312-0.387c0.301-0.259,0.452-0.578,0.452-0.958
		c0-0.251-0.068-0.491-0.205-0.723s-0.358-0.414-0.666-0.547c-0.308-0.134-0.688-0.2-1.141-0.2c-0.196,0-0.364,0.004-0.504,0.01
		c-0.14,0.007-0.252,0.018-0.337,0.033V43.929z"/>
	<path d="M69.492,38.124v-0.176h2.282v0.176h-0.242c-0.254,0-0.449,0.105-0.585,0.318c-0.066,0.098-0.1,0.326-0.1,0.685v2.614
		c0,0.647-0.064,1.148-0.193,1.505c-0.128,0.356-0.38,0.663-0.756,0.918s-0.887,0.383-1.533,0.383c-0.704,0-1.238-0.122-1.602-0.366
		c-0.365-0.244-0.623-0.572-0.775-0.984c-0.102-0.282-0.152-0.812-0.152-1.588v-2.52c0-0.396-0.055-0.656-0.164-0.779
		c-0.109-0.124-0.286-0.186-0.53-0.186h-0.243v-0.176h2.786v0.176h-0.247c-0.267,0-0.457,0.084-0.571,0.252
		c-0.079,0.114-0.119,0.352-0.119,0.713v2.81c0,0.251,0.023,0.537,0.069,0.86s0.129,0.575,0.25,0.756s0.294,0.33,0.521,0.447
		s0.505,0.176,0.834,0.176c0.421,0,0.799-0.092,1.131-0.275c0.333-0.184,0.561-0.419,0.683-0.706
		c0.122-0.287,0.183-0.772,0.183-1.457v-2.61c0-0.402-0.044-0.654-0.133-0.756c-0.124-0.14-0.308-0.209-0.552-0.209H69.492z"/>
	<path d="M76.519,37.948h2.249v0.176h-0.124c-0.083,0-0.203,0.036-0.361,0.109c-0.158,0.072-0.303,0.177-0.433,0.313
		s-0.29,0.358-0.48,0.665l-1.555,2.449v1.616c0,0.396,0.044,0.644,0.133,0.741c0.12,0.134,0.311,0.2,0.57,0.2h0.209v0.176H73.99
		v-0.176h0.228c0.273,0,0.466-0.082,0.58-0.247c0.07-0.102,0.105-0.333,0.105-0.694v-1.526l-1.769-2.7
		c-0.209-0.317-0.351-0.515-0.425-0.595c-0.075-0.079-0.229-0.174-0.463-0.285c-0.063-0.031-0.155-0.047-0.276-0.047v-0.176h2.757
		v0.176h-0.143c-0.149,0-0.286,0.034-0.411,0.104c-0.125,0.069-0.188,0.174-0.188,0.313c0,0.114,0.097,0.32,0.29,0.618l1.346,2.077
		l1.265-1.987c0.19-0.298,0.285-0.52,0.285-0.665c0-0.089-0.023-0.168-0.069-0.238c-0.046-0.069-0.112-0.124-0.197-0.164
		c-0.086-0.039-0.214-0.059-0.385-0.059V37.948z"/>
	<path d="M81.916,44.219v0.176h-2.762v-0.176h0.228c0.266,0,0.459-0.078,0.58-0.233c0.076-0.102,0.114-0.345,0.114-0.731v-4.165
		c0-0.326-0.021-0.542-0.062-0.646c-0.032-0.079-0.097-0.147-0.195-0.205c-0.14-0.075-0.285-0.113-0.438-0.113h-0.228v-0.176h2.762
		v0.176h-0.233c-0.263,0-0.455,0.077-0.576,0.232c-0.079,0.102-0.119,0.346-0.119,0.732v4.165c0,0.326,0.021,0.542,0.062,0.646
		c0.031,0.079,0.098,0.147,0.199,0.204c0.136,0.076,0.281,0.114,0.433,0.114H81.916z"/>
	<path d="M82.024,37.948h1.75l3.941,4.835v-3.718c0-0.396-0.045-0.644-0.133-0.742c-0.117-0.133-0.303-0.199-0.557-0.199h-0.223
		v-0.176h2.244v0.176h-0.229c-0.273,0-0.467,0.082-0.58,0.247c-0.07,0.102-0.105,0.333-0.105,0.694v5.434h-0.17l-4.25-5.191v3.97
		c0,0.396,0.042,0.644,0.128,0.741c0.12,0.134,0.306,0.2,0.556,0.2h0.229v0.176h-2.244v-0.176h0.224
		c0.276,0,0.471-0.082,0.585-0.247c0.069-0.102,0.104-0.333,0.104-0.694v-4.483c-0.187-0.219-0.329-0.363-0.426-0.433
		s-0.238-0.135-0.425-0.195c-0.092-0.028-0.231-0.042-0.418-0.042V37.948z"/>
	<path d="M95.16,37.801l0.166,2.034H95.16c-0.168-0.507-0.385-0.889-0.65-1.146c-0.385-0.371-0.877-0.557-1.479-0.557
		c-0.822,0-1.445,0.325-1.875,0.975c-0.357,0.549-0.537,1.201-0.537,1.959c0,0.615,0.119,1.176,0.357,1.684
		c0.238,0.507,0.549,0.878,0.934,1.114s0.781,0.354,1.188,0.354c0.236,0,0.467-0.03,0.689-0.091c0.221-0.06,0.436-0.148,0.641-0.266
		v-1.864c0-0.323-0.023-0.534-0.074-0.635c-0.049-0.1-0.125-0.176-0.227-0.228c-0.104-0.053-0.285-0.079-0.545-0.079v-0.181h2.496
		v0.181h-0.119c-0.248,0-0.416,0.083-0.51,0.248c-0.063,0.117-0.094,0.349-0.094,0.693v1.974c-0.365,0.196-0.725,0.341-1.08,0.433
		s-0.75,0.138-1.184,0.138c-1.246,0-2.191-0.399-2.838-1.198c-0.484-0.599-0.727-1.29-0.727-2.073c0-0.566,0.135-1.11,0.408-1.63
		c0.322-0.618,0.768-1.094,1.33-1.427c0.473-0.275,1.031-0.413,1.674-0.413c0.234,0,0.447,0.019,0.641,0.057
		c0.191,0.038,0.463,0.122,0.814,0.252c0.178,0.066,0.297,0.1,0.357,0.1c0.059,0,0.111-0.027,0.154-0.083s0.068-0.164,0.078-0.325
		H95.16z"/>
	<path d="M104.512,37.801l0.148,2.191h-0.148c-0.197-0.656-0.477-1.128-0.842-1.417c-0.363-0.288-0.801-0.433-1.313-0.433
		c-0.428,0-0.814,0.108-1.16,0.326c-0.344,0.217-0.617,0.563-0.814,1.038s-0.297,1.067-0.297,1.773c0,0.583,0.094,1.089,0.279,1.517
		c0.188,0.428,0.469,0.756,0.846,0.984c0.375,0.229,0.803,0.343,1.285,0.343c0.418,0,0.787-0.09,1.107-0.27
		c0.32-0.179,0.672-0.534,1.057-1.067l0.146,0.096c-0.324,0.573-0.701,0.993-1.131,1.26c-0.432,0.267-0.943,0.399-1.537,0.399
		c-1.066,0-1.895-0.396-2.48-1.188c-0.438-0.59-0.656-1.284-0.656-2.083c0-0.643,0.145-1.234,0.432-1.772
		c0.289-0.539,0.686-0.957,1.191-1.253c0.506-0.297,1.059-0.444,1.656-0.444c0.467,0,0.926,0.113,1.379,0.342
		c0.135,0.07,0.229,0.104,0.285,0.104c0.086,0,0.16-0.03,0.225-0.09c0.082-0.086,0.141-0.205,0.176-0.356H104.512z"/>
	<path d="M108.705,37.801c0.836,0,1.563,0.317,2.176,0.953c0.613,0.635,0.92,1.429,0.92,2.379c0,0.979-0.311,1.793-0.928,2.439
		c-0.619,0.646-1.367,0.97-2.244,0.97c-0.887,0-1.633-0.315-2.236-0.946s-0.906-1.446-0.906-2.448c0-1.023,0.35-1.859,1.047-2.506
		C107.137,38.081,107.861,37.801,108.705,37.801z M108.615,38.147c-0.578,0-1.041,0.214-1.389,0.642
		c-0.434,0.532-0.652,1.313-0.652,2.339c0,1.053,0.227,1.862,0.676,2.43c0.346,0.432,0.803,0.646,1.369,0.646
		c0.605,0,1.105-0.235,1.5-0.708s0.592-1.217,0.592-2.234c0-1.104-0.217-1.926-0.65-2.468
		C109.711,38.363,109.23,38.147,108.615,38.147z"/>
	<path d="M116.16,44.395l-2.49-5.425v4.308c0,0.396,0.041,0.644,0.127,0.741c0.117,0.134,0.303,0.2,0.557,0.2h0.229v0.176h-2.244
		v-0.176h0.229c0.271,0,0.465-0.082,0.58-0.247c0.068-0.102,0.104-0.333,0.104-0.694v-4.212c0-0.286-0.031-0.491-0.094-0.618
		c-0.045-0.092-0.127-0.169-0.246-0.23c-0.119-0.063-0.309-0.093-0.572-0.093v-0.176h1.826l2.338,5.044l2.301-5.044h1.826v0.176
		h-0.223c-0.275,0-0.471,0.082-0.586,0.247c-0.068,0.102-0.104,0.333-0.104,0.694v4.212c0,0.396,0.045,0.644,0.133,0.741
		c0.117,0.134,0.303,0.2,0.557,0.2h0.223v0.176h-2.738v-0.176h0.229c0.275,0,0.469-0.082,0.58-0.247
		c0.07-0.102,0.104-0.333,0.104-0.694V38.97l-2.486,5.425H116.16z"/>
	<path d="M122.83,41.376v1.878c0,0.405,0.045,0.657,0.133,0.756c0.121,0.14,0.303,0.209,0.547,0.209h0.248v0.176h-2.762v-0.176
		h0.242c0.271,0,0.467-0.089,0.584-0.267c0.064-0.098,0.096-0.331,0.096-0.698v-4.165c0-0.405-0.043-0.658-0.129-0.756
		c-0.123-0.14-0.307-0.209-0.551-0.209h-0.242v-0.176h2.361c0.578,0,1.033,0.059,1.365,0.178s0.613,0.319,0.842,0.602
		s0.342,0.616,0.342,1.003c0,0.526-0.174,0.954-0.521,1.284c-0.346,0.329-0.836,0.494-1.471,0.494c-0.154,0-0.322-0.011-0.504-0.033
		C123.23,41.453,123.037,41.42,122.83,41.376z M122.83,41.104c0.168,0.032,0.316,0.056,0.447,0.071
		c0.129,0.016,0.24,0.023,0.332,0.023c0.33,0,0.615-0.127,0.854-0.382c0.24-0.256,0.359-0.586,0.359-0.991
		c0-0.279-0.057-0.538-0.172-0.777c-0.113-0.239-0.275-0.419-0.484-0.538c-0.209-0.118-0.447-0.178-0.713-0.178
		c-0.162,0-0.369,0.03-0.623,0.09V41.104z"/>
	<path d="M129.811,42.236h-2.496l-0.438,1.018c-0.109,0.25-0.162,0.437-0.162,0.561c0,0.099,0.047,0.185,0.141,0.259
		c0.094,0.075,0.295,0.123,0.605,0.146v0.176h-2.029v-0.176c0.27-0.048,0.443-0.109,0.521-0.186
		c0.162-0.152,0.342-0.461,0.539-0.927l2.268-5.306h0.166l2.244,5.362c0.18,0.432,0.344,0.711,0.492,0.839
		c0.146,0.129,0.352,0.201,0.615,0.217v0.176h-2.543v-0.176c0.256-0.013,0.43-0.056,0.52-0.129c0.09-0.072,0.137-0.161,0.137-0.266
		c0-0.14-0.064-0.36-0.191-0.661L129.811,42.236z M129.676,41.885l-1.092-2.605l-1.123,2.605H129.676z"/>
	<path d="M132.258,37.948h1.75l3.941,4.835v-3.718c0-0.396-0.045-0.644-0.133-0.742c-0.117-0.133-0.303-0.199-0.557-0.199h-0.225
		v-0.176h2.244v0.176h-0.229c-0.271,0-0.465,0.082-0.58,0.247c-0.068,0.102-0.104,0.333-0.104,0.694v5.434h-0.172l-4.25-5.191v3.97
		c0,0.396,0.043,0.644,0.129,0.741c0.121,0.134,0.305,0.2,0.557,0.2h0.229v0.176h-2.244v-0.176h0.223
		c0.275,0,0.471-0.082,0.584-0.247c0.07-0.102,0.105-0.333,0.105-0.694v-4.483c-0.188-0.219-0.328-0.363-0.426-0.433
		c-0.096-0.069-0.238-0.135-0.426-0.195c-0.092-0.028-0.23-0.042-0.418-0.042V37.948z"/>
	<path d="M144.059,37.948h2.248v0.176h-0.123c-0.084,0-0.203,0.036-0.361,0.109c-0.16,0.072-0.303,0.177-0.434,0.313
		c-0.129,0.137-0.289,0.358-0.48,0.665l-1.555,2.449v1.616c0,0.396,0.045,0.644,0.133,0.741c0.121,0.134,0.311,0.2,0.572,0.2h0.209
		v0.176h-2.738v-0.176h0.227c0.273,0,0.467-0.082,0.58-0.247c0.07-0.102,0.105-0.333,0.105-0.694v-1.526l-1.77-2.7
		c-0.209-0.317-0.35-0.515-0.424-0.595c-0.076-0.079-0.23-0.174-0.465-0.285c-0.063-0.031-0.154-0.047-0.275-0.047v-0.176h2.758
		v0.176h-0.143c-0.148,0-0.287,0.034-0.412,0.104c-0.125,0.069-0.188,0.174-0.188,0.313c0,0.114,0.098,0.32,0.291,0.618l1.344,2.077
		l1.266-1.987c0.189-0.298,0.285-0.52,0.285-0.665c0-0.089-0.023-0.168-0.068-0.238c-0.047-0.069-0.113-0.124-0.197-0.164
		c-0.086-0.039-0.215-0.059-0.385-0.059V37.948z"/>
	<path d="M151.807,37.394l0.041,0.882h-0.105c-0.02-0.155-0.047-0.267-0.082-0.333c-0.059-0.106-0.135-0.186-0.229-0.236
		c-0.096-0.051-0.221-0.076-0.377-0.076h-0.529v2.871c0,0.231,0.025,0.375,0.076,0.433c0.07,0.077,0.178,0.116,0.324,0.116h0.129
		v0.103h-1.594V41.05h0.133c0.16,0,0.273-0.048,0.34-0.145c0.039-0.059,0.061-0.193,0.061-0.404V37.63h-0.453
		c-0.174,0-0.299,0.013-0.373,0.038c-0.096,0.035-0.178,0.103-0.246,0.203c-0.068,0.1-0.109,0.234-0.123,0.404h-0.105l0.045-0.882
		H151.807z"/>
	<path d="M154.313,41.152l-1.453-3.162v2.511c0,0.231,0.025,0.375,0.076,0.433c0.068,0.077,0.176,0.116,0.324,0.116h0.133v0.103
		h-1.309V41.05h0.133c0.158,0,0.271-0.048,0.338-0.145c0.041-0.059,0.061-0.193,0.061-0.404v-2.456c0-0.166-0.018-0.286-0.055-0.36
		c-0.025-0.054-0.074-0.098-0.143-0.134s-0.18-0.055-0.334-0.055v-0.103h1.064l1.363,2.941l1.342-2.941h1.064v0.103h-0.131
		c-0.16,0-0.273,0.049-0.34,0.145c-0.041,0.06-0.063,0.194-0.063,0.404v2.456c0,0.231,0.027,0.375,0.078,0.433
		c0.068,0.077,0.178,0.116,0.324,0.116h0.131v0.103h-1.596V41.05h0.133c0.16,0,0.273-0.048,0.338-0.145
		c0.041-0.059,0.061-0.193,0.061-0.404V37.99l-1.449,3.162H154.313z"/>
</g>
</svg>
